<svg viewBox="0 0 32 32" xmlns="http://www.w3.org/2000/svg">
  <rect width="32" height="32" rx="6" fill="#1a1a1a"/>
  
  <!-- Face -->
  <path d="M10,12 L10,24 Q16,28 22,24 L22,12" fill="#f0d5be"/>
  
  <!-- Hair: Iteration 2 - Messy & Wider -->
  <!-- Main shape -->
  <path d="M8,20 
           C7,15 8,8 16,8 
           C24,8 25,15 24,20
           L23,24 
           L21,18 
           Q21,14 16,14 
           Q11,14 11,18 
           L9,24 
           Z" fill="#0f0f0f"/>
           
  <!-- Glasses -->
  <rect x="11" y="17" width="4" height="2.5" fill="#000"/>
  <rect x="17" y="17" width="4" height="2.5" fill="#000"/>
  <line x1="15" y1="18" x2="17" y2="18" stroke="#000" stroke-width="0.8"/>
  
  <!-- Cigarette -->
  <path d="M18,25 L26,23" stroke="#fff" stroke-width="1.5" stroke-linecap="round"/>
  <circle cx="26" cy="23" r="0.8" fill="#ef4444"/>
  
  <!-- Smoke -->
  <circle cx="28" cy="20" r="0.5" fill="rgba(255,255,255,0.5)"/>
  <circle cx="29" cy="18" r="0.8" fill="rgba(255,255,255,0.3)"/>
</svg>