<svg viewBox="0 0 40 40" xmlns="http://www.w3.org/2000/svg">
  <g fill="none" stroke="#22c55e" stroke-width="2" stroke-linejoin="round" stroke-linecap="round">
    <!-- Face Outline -->
    <path d="M13 11 Q17 7 20 7 Q23 7 27 11 L27 8 Q23 4 20 4 Q17 4 13 8 Z" />
    <path d="M13 11 L13 25 L14 25 L11 30 L11 37 L29 37 L29 30 L26 25 L27 25 L27 11" />
    
    <!-- Glasses -->
    <rect x="17" y="21" width="6" height="4" fill="none" />
    <line x1="13" y1="23" x2="17" y2="23" />
    <line x1="23" y1="23" x2="27" y2="23" />
    
    <!-- Cigarette -->
    <line x1="12" y1="36" x2="16" y2="34" stroke="#ef4444" />
    <circle cx="11" cy="37" r="0.5" fill="#ef4444" stroke="none" />
    
    <!-- Smoke -->
    <path d="M10 35 Q 8 33 10 31" stroke="#ccc" stroke-width="1" />
  </g>
</svg>